# xmcd CD database file
#
# Track frame offsets:
#	150
#	15059
#	31516
#	46258
#	63028
#	88610
#	103187
#	121864
#	138978
#	153580
#	169637
#	182193
#
# Disc length: 2592 seconds
#
# Revision: 0
# Processed by: cddbd v1.5.2PL0 Copyright (c) Steve Scherf et al.
# Submitted via: ACXtractor (MTCDDB.DLL V2003.12.21)
#
DISCID=850a1e0c
DTITLE=Shaza Leigh - Seasons
DYEAR=2009
DGENRE=Country
TTITLE0=I Couldn't Leave You if I Tried
TTITLE1=The Seasons of Love
TTITLE2=In A Little While
TTITLE3=He Drives The Nullabor
TTITLE4=The Rose
TTITLE5=On A Good Day
TTITLE6=Box Of Kisses
TTITLE7=His Little Shiralee
TTITLE8=Let Your Love Flow
TTITLE9=Climbing Mountains and Building Bridges
TTITLE10=Little White Circle
TTITLE11=Living The Dream
EXTD=ID3G:   2 YEAR: 2009
EXTT0=
EXTT1=
EXTT2=
EXTT3=
EXTT4=
EXTT5=
EXTT6=
EXTT7=
EXTT8=
EXTT9=
EXTT10=
EXTT11=
PLAYORDER=
